<svg width="428" height="463" viewBox="0 0 428 463" version="1.1" xmlns="http://www.w3.org/2000/svg" xmlns:xlink="http://www.w3.org/1999/xlink">
<title>logo</title>
<desc>Created using Figma</desc>
<g id="Canvas" transform="translate(640 449)">
<g id="logo">
<g id="Group">
<g id="Vector">
<use xlink:href="#path0_fill" transform="translate(-640 -449)" fill="#333333"/>
</g>
<g id="Group 2">
<g id="Vector">
<use xlink:href="#path1_stroke" transform="translate(-449 -228)"/>
</g>
<g id="Ellipse">
<use xlink:href="#path2_fill" transform="translate(-412 -267)" fill="#000000" fill-opacity="0.8"/>
</g>
<g id="Ellipse">
<use xlink:href="#path3_fill" transform="translate(-456 -267)" fill="#000000" fill-opacity="0.8"/>
</g>
</g>
<g id="Group 2.2">
<g id="Ellipse">
<use xlink:href="#path2_fill" transform="translate(-359 -179)" fill="#000000" fill-opacity="0.8"/>
</g>
<g id="Ellipse">
<use xlink:href="#path3_fill" transform="translate(-403 -179)" fill="#000000" fill-opacity="0.8"/>
</g>
</g>
<g id="Group 2.1">
<g id="Vector">
<use xlink:href="#path4_stroke" transform="matrix(1 0 0 -1 -547 -241)"/>
</g>
<g id="Ellipse">
<use xlink:href="#path2_fill" transform="translate(-510 -286)" fill="#000000" fill-opacity="0.8"/>
</g>
<g id="Ellipse">
<use xlink:href="#path3_fill" transform="translate(-554 -286)" fill="#000000" fill-opacity="0.8"/>
</g>
</g>
<g id="Vector" filter="url(#filter0_d)">
<use xlink:href="#path5_fill" transform="translate(-394 -347)" fill="#9575CD"/>
</g>
</g>
</g>
</g>
<defs>
<filter id="filter0_d" filterUnits="userSpaceOnUse" x="-397" y="-349" width="173" height="87" color-interpolation-filters="sRGB">
<feFlood flood-opacity="0" result="BackgroundImageFix"/>
<feColorMatrix in="SourceAlpha" type="matrix" values="0 0 0 0 0 0 0 0 0 0 0 0 0 0 0 0 0 0 255 0"/>
<feOffset dx="0" dy="4"/>
<feGaussianBlur stdDeviation="3"/>
<feColorMatrix type="matrix" values="0 0 0 0 0 0 0 0 0 0 0 0 0 0 0 0 0 0 0.25 0"/>
<feBlend mode="normal" in2="BackgroundImageFix" result="effect1_dropShadow"/>
<feBlend mode="normal" in="SourceGraphic" in2="effect1_dropShadow" result="shape"/>
</filter>
<path id="path0_fill" d="M 428 181.596C 428 139.978 403.031 112.018 365.871 112.018C 362.226 112.018 358.823 112.309 355.537 112.742C 342.635 98.6953 322.678 89.6666 303.866 89.6218C 315.022 76.0004 323.05 59.6309 324.403 45.5764L 324.921 40.2592L 320.434 38.0189C 305.62 30.6257 265.036 22.8068 238.355 38.2056C 230.865 42.522 225.204 47.8765 220.889 53.7985L 220.903 0L 207.097 0L 207.09 53.8059C 202.775 47.8914 197.115 42.5369 189.632 38.2205C 161.37 21.8883 116.478 33.568 107.552 38.0264L 103.065 40.2742L 103.583 45.5838C 104.943 59.6309 112.971 76.0079 124.127 89.6293C 105.316 89.6666 85.3653 98.7102 72.4701 112.75C 69.1772 112.309 65.7739 112.018 62.1221 112.018C 24.9621 112.018 0 139.978 0 181.596C 0 207.592 15.3183 235.043 39.4105 243.639C 32.5763 254.617 27.606 268.208 27.606 283.771C 27.606 318.497 51.4843 344.672 85.959 349.951C 84.0744 356.344 82.8318 364.013 82.8318 373.386C 82.8318 396.349 95.9341 415.93 117.886 425.773C 126.136 429.469 134.523 431.291 142.041 431.291C 147.46 431.291 152.327 430.231 156.469 428.349C 165.208 449.976 185.883 463 213.993 463C 242.103 463 262.785 449.976 271.525 428.349C 275.667 430.224 280.533 431.291 285.952 431.291C 293.47 431.291 301.857 429.469 310.107 425.773C 332.059 415.938 345.161 396.357 345.161 373.393C 345.161 364.021 343.919 356.344 342.041 349.959C 376.502 344.679 400.387 318.504 400.387 283.779C 400.387 268.216 395.424 254.624 388.583 243.646C 412.675 235.043 428 207.592 428 181.596ZM 326.405 245.364C 315.008 227.598 296.535 213.984 276.074 210.049C 276.081 209.727 276.129 209.421 276.129 209.1C 276.129 191.401 271.697 175.741 264.069 163.345C 271.449 152.352 287.202 141.889 303.742 141.889C 335.745 141.889 358.968 163.875 358.968 194.164C 358.968 219.802 347.087 238.15 326.405 245.364ZM 248.571 347.315C 245.099 344.866 241.44 342.79 237.637 341.124C 229.484 334.851 224.417 326.585 220.903 319.266L 220.903 275.646C 241.875 272.159 267.162 253.467 274.203 224.835C 301.139 230.339 324.452 257.006 324.452 283.779C 324.452 322.724 301.229 350.99 269.226 350.99C 261.115 350.99 254.329 349.593 248.571 347.315ZM 179.781 347.061C 173.927 349.444 167.093 350.99 158.767 350.99C 126.764 350.99 103.541 322.724 103.541 283.779C 103.541 257.014 126.854 230.339 153.797 224.835C 160.831 253.467 186.111 272.144 207.09 275.646L 207.09 319.326C 203.542 326.697 198.343 334.986 190.08 341.266C 186.504 342.85 183.06 344.784 179.781 347.061ZM 69.0254 194.164C 69.0254 163.875 92.2478 141.889 124.251 141.889C 140.791 141.889 156.544 152.359 163.924 163.345C 156.289 175.741 151.864 191.394 151.864 209.1C 151.864 209.421 151.912 209.727 151.919 210.049C 131.458 213.984 112.985 227.605 101.595 245.364C 80.9127 238.15 69.0254 219.802 69.0254 194.164ZM 213.993 106.171C 220.551 110.554 234.157 118.074 250.553 118.522C 246.756 125.356 244.07 133.234 242.704 142.106C 234.247 137.192 224.562 134.422 213.993 134.422C 203.424 134.422 193.746 137.192 185.289 142.106C 183.923 133.234 181.237 125.348 177.441 118.522C 193.836 118.074 207.435 110.554 213.993 106.171ZM 214.007 261.375L 214.007 268.843L 213.993 268.843L 213.993 261.375C 194.754 261.375 165.671 240.525 165.671 209.1C 165.671 180.319 180.795 149.357 214.007 149.357C 247.205 149.357 262.323 180.319 262.323 209.1C 262.323 240.525 233.239 261.375 214.007 261.375ZM 323.789 129.65C 317.486 127.91 310.776 126.954 303.742 126.954C 283.626 126.954 265.885 138.148 255.613 151.038C 256.676 135.004 262.233 122.719 271.683 114.818C 274.238 113.81 276.806 112.63 279.387 111.137C 281.293 110.039 283.17 108.784 285.027 107.463C 290.578 105.573 296.804 104.55 303.742 104.55C 316.202 104.55 329.263 109.397 339.328 117.305C 333.088 120.203 327.903 124.325 323.789 129.65ZM 244.871 51.3938C 264.732 39.9232 295.327 44.6429 309.72 49.5791C 305.965 64.8285 293.201 83.1771 278.939 93.9233C 273.982 95.8052 269.481 98.3069 265.422 101.354C 246.231 107.985 228.414 98.2845 221.352 93.5574C 224.127 71.9678 231.286 59.2351 244.871 51.3938ZM 183.129 51.3938C 196.707 59.2351 203.866 71.9603 206.627 93.535C 199.572 98.2099 181.658 107.911 162.536 101.331C 158.484 98.292 153.99 95.7977 149.041 93.9233C 134.834 83.2144 122.118 64.9629 118.314 49.7434C 131.859 45.5988 164.041 40.3713 183.129 51.3938ZM 124.251 104.55C 131.189 104.55 137.423 105.573 142.973 107.463C 144.837 108.784 146.714 110.039 148.62 111.137C 151.194 112.63 153.762 113.81 156.31 114.818C 165.76 122.719 171.324 135.004 172.38 151.038C 162.108 138.148 144.367 126.954 124.251 126.954C 117.217 126.954 110.507 127.91 104.204 129.65C 100.09 124.325 94.9055 120.21 88.665 117.305C 98.7368 109.397 111.791 104.55 124.251 104.55ZM 13.8065 181.596C 13.8065 148.401 32.7696 126.954 62.1221 126.954C 74.3201 126.954 83.4738 129.762 89.9214 135.333C 68.8804 146.579 55.2189 168.191 55.2189 194.164C 55.2189 204.104 56.7445 213.245 59.5817 221.452C 56.1646 223.976 52.6095 227.157 49.151 230.884C 28.0547 226.963 13.8065 203.186 13.8065 181.596ZM 41.4125 283.779C 41.4125 268.85 47.363 255.968 54.6805 246.402C 54.8668 246.41 55.0325 246.439 55.2189 246.439L 55.2189 245.737C 58.6843 241.331 62.4052 237.672 65.9534 234.872C 72.7117 245.685 82.4728 253.885 94.7468 258.732C 91.5644 266.737 89.735 275.206 89.735 283.771C 89.735 300.141 93.235 314.905 99.3719 327.316C 97.087 329.385 94.6432 332.133 92.3376 335.688C 66.0639 333.149 41.4125 315.45 41.4125 283.779ZM 123.174 411.98C 115.194 408.402 96.6383 397.492 96.6383 373.393C 96.6383 354.402 102.451 344.619 107.069 339.825C 119.419 356.105 137.519 365.925 158.767 365.925C 159.927 365.925 160.983 365.813 162.102 365.768C 155.778 375.984 151.864 388.56 151.864 403.265C 151.864 406.939 152.182 410.441 152.665 413.839C 147.646 417.319 135.469 417.498 123.174 411.98ZM 213.993 448.072C 183.736 448.072 165.671 431.321 165.671 403.265C 165.671 384.05 173.644 369.853 184.813 361.138C 189.618 359.197 193.78 356.762 197.439 354.074C 202.81 352.05 208.436 350.99 213.993 350.99L 213.993 336.069C 213.993 336.069 213.993 336.061 214 336.061C 214 336.061 214.007 336.069 214.007 336.076L 214.007 350.99C 219.557 350.99 225.176 352.05 230.54 354.074C 234.206 356.77 238.382 359.204 243.187 361.146C 254.349 369.861 262.323 384.057 262.323 403.265C 262.323 431.321 244.257 448.072 213.993 448.072ZM 304.819 411.98C 292.524 417.498 280.354 417.327 275.321 413.839C 275.811 410.441 276.129 406.939 276.129 403.265C 276.129 388.56 272.215 375.984 265.892 365.768C 267.01 365.813 268.066 365.925 269.226 365.925C 290.46 365.925 308.54 356.12 320.896 339.862C 325.515 344.694 331.355 354.499 331.355 373.393C 331.355 397.492 312.799 408.402 304.819 411.98ZM 386.581 283.779C 386.581 315.45 361.929 333.149 335.662 335.695C 333.35 332.133 330.906 329.385 328.628 327.324C 334.758 314.912 338.258 300.148 338.258 283.779C 338.258 275.213 336.436 266.745 333.246 258.739C 345.52 253.885 355.288 245.693 362.04 234.879C 365.581 237.68 369.309 241.339 372.774 245.745L 372.774 246.439C 372.961 246.439 373.133 246.41 373.313 246.402C 380.63 255.968 386.581 268.85 386.581 283.779ZM 378.849 230.884C 375.391 227.157 371.835 223.984 368.418 221.452C 371.249 213.245 372.774 204.104 372.774 194.164C 372.774 168.191 359.113 146.587 338.072 135.333C 344.519 129.762 353.673 126.954 365.871 126.954C 395.223 126.954 414.194 148.401 414.194 181.596C 414.194 203.186 399.945 226.963 378.849 230.884Z"/>
<path id="path1_stroke" d="M -0.385153 0.318837C 2.80303 4.17014 8.95362 8.77162 17.0833 10.1148C 25.2364 11.4618 35.318 9.52132 46.3194 0.384647L 45.6806 -0.384647C 34.8746 8.58964 25.0796 10.4223 17.2463 9.12814C 9.38959 7.83009 3.44389 3.37609 0.385153 -0.318837L -0.385153 0.318837Z"/>
<path id="path2_fill" d="M 18 9C 18 13.9706 13.9706 18 9 18C 4.02944 18 0 13.9706 0 9C 0 4.02944 4.02944 0 9 0C 13.9706 0 18 4.02944 18 9Z"/>
<path id="path3_fill" d="M 18 9C 18 13.9706 13.9706 18 9 18C 4.02944 18 0 13.9706 0 9C 0 4.02944 4.02944 0 9 0C 13.9706 0 18 4.02944 18 9Z"/>
<path id="path4_stroke" d="M -0.347461 0.359543C 6.04281 6.53507 24.2456 15.0539 46.2767 0.416461L 45.7233 -0.416461C 24.1396 13.9237 6.45102 5.53891 0.347461 -0.359543L -0.347461 0.359543Z"/>
<path id="path5_fill" d="M 161 0L 12.3123 0C 10.6554 0 9.3123 1.34315 9.3123 3L 9.3123 54.4594C 9.3123 54.8169 9.2484 55.1716 9.1236 55.5066L 3.42827 70.7964C 2.39483 73.5708 5.57857 76.0063 7.98589 74.2829L 14.7373 69.4496C 15.2466 69.0849 15.8573 68.8889 16.4837 68.8889L 161 68.8889C 162.657 68.8889 164 67.5458 164 65.8889L 164 3C 164 1.34315 162.657 0 161 0Z"/>
</defs>
</svg>
