<svg width="496" height="496" viewBox="0 0 496 496" version="1.1" xmlns="http://www.w3.org/2000/svg" xmlns:xlink="http://www.w3.org/1999/xlink">
<title>logo</title>
<desc>Created using Figma</desc>
<g id="Canvas" transform="translate(300 -655)">
<g id="logo">
<g id="Vector">
<use xlink:href="#path0_fill" transform="translate(-292 759)" fill="#9575CD"/>
</g>
<g id="Group">
<g id="Vector">
<use xlink:href="#path1_fill" transform="translate(-300 655)" fill="#333333"/>
</g>
<g id="Vector">
<use xlink:href="#path2_fill" transform="translate(-164 967)" fill="#333333"/>
</g>
<g id="Vector">
<use xlink:href="#path3_fill" transform="translate(-92 1079)" fill="#333333"/>
</g>
</g>
</g>
</g>
<defs>
<path id="path0_fill" d="M 480 90.536C 480 51.92 455.472 24 416 24C 410.896 24 406.192 24.4 401.816 25.136L 400.016 24C 386.92 9.792 365.096 -2.19727e-06 344 -2.19727e-06C 323.592 -2.19727e-06 307.408 6.296 296.4 17.744L 240 2.2L 184.024 18.216C 173.016 6.48 156.68 -2.19727e-06 136 -2.19727e-06C 114.92 -2.19727e-06 93.08 9.792 80 24L 79.016 25.24C 74.416 24.416 69.416 24 64 24C 24.536 24 0 51.92 0 90.536C 0 119.888 22 149.28 51.936 151.76C 41.16 163.536 32 180.232 32 200C 32 238.856 64.728 262.544 103.264 263.872C 99.2 271.112 96 281.408 96 296C 96 344 160 360 176 344L 177.936 343.664C 184.288 368.76 206.504 384 240 384C 273.352 384 295.52 368.896 301.992 344L 304 344C 320 360 384 344 384 296C 384 281.408 380.792 271.112 376.736 263.872C 415.28 262.544 448 238.856 448 200C 448 180.232 438.832 163.536 428.064 151.76C 458 149.28 480 119.888 480 90.536Z"/>
<path id="path1_fill" d="M 496 194.536C 496 149.952 467.064 120 424 120C 419.776 120 415.832 120.312 412.024 120.776C 397.072 105.728 373.944 96.056 352.144 96.008C 365.072 81.416 374.376 63.88 375.944 48.824L 376.544 43.128L 371.344 40.728C 354.176 32.808 307.144 24.432 276.224 40.928C 267.544 45.552 260.984 51.288 255.984 57.632L 256 1.8999e-10L 240 1.8999e-10L 239.992 57.64C 234.992 51.304 228.432 45.568 219.76 40.944C 187.008 23.448 134.984 35.96 124.64 40.736L 119.44 43.144L 120.04 48.832C 121.616 63.88 130.92 81.424 143.848 96.016C 122.048 96.056 98.928 105.744 83.984 120.784C 80.168 120.312 76.224 120 71.992 120C 28.928 120 0 149.952 0 194.536C 0 222.384 17.752 251.792 45.672 261C 37.752 272.76 31.992 287.32 31.992 303.992C 31.992 341.192 59.664 369.232 99.616 374.888C 97.432 381.736 95.992 389.952 95.992 399.992C 95.992 424.592 111.176 445.568 136.616 456.112C 146.176 460.072 155.896 462.024 164.608 462.024C 170.888 462.024 176.528 460.888 181.328 458.872C 191.456 482.04 215.416 495.992 247.992 495.992C 280.568 495.992 304.536 482.04 314.664 458.872C 319.464 460.88 325.104 462.024 331.384 462.024C 340.096 462.024 349.816 460.072 359.376 456.112C 384.816 445.576 400 424.6 400 400C 400 389.96 398.56 381.736 396.384 374.896C 436.32 369.24 464 341.2 464 304C 464 287.328 458.248 272.768 450.32 261.008C 478.24 251.792 496 222.384 496 194.536ZM 378.264 262.848C 365.056 243.816 343.648 229.232 319.936 225.016C 319.944 224.672 320 224.344 320 224C 320 205.04 314.864 188.264 306.024 174.984C 314.576 163.208 332.832 152 352 152C 389.088 152 416 175.552 416 208C 416 235.464 402.232 255.12 378.264 262.848ZM 288.064 372.064C 284.04 369.44 279.8 367.216 275.392 365.432C 265.944 358.712 260.072 349.856 256 342.016L 256 295.288C 280.304 291.552 309.608 271.528 317.768 240.856C 348.984 246.752 376 275.32 376 304C 376 345.72 349.088 376 312 376C 302.6 376 294.736 374.504 288.064 372.064ZM 208.344 371.792C 201.56 374.344 193.64 376 183.992 376C 146.904 376 119.992 345.72 119.992 304C 119.992 275.328 147.008 246.752 178.232 240.856C 186.384 271.528 215.68 291.536 239.992 295.288L 239.992 342.08C 235.88 349.976 229.856 358.856 220.28 365.584C 216.136 367.28 212.144 369.352 208.344 371.792ZM 79.992 208C 79.992 175.552 106.904 152 143.992 152C 163.16 152 181.416 163.216 189.968 174.984C 181.12 188.264 175.992 205.032 175.992 224C 175.992 224.344 176.048 224.672 176.056 225.016C 152.344 229.232 130.936 243.824 117.736 262.848C 93.768 255.12 79.992 235.464 79.992 208ZM 247.992 113.736C 255.592 118.432 271.36 126.488 290.36 126.968C 285.96 134.288 282.848 142.728 281.264 152.232C 271.464 146.968 260.24 144 247.992 144C 235.744 144 224.528 146.968 214.728 152.232C 213.144 142.728 210.032 134.28 205.632 126.968C 224.632 126.488 240.392 118.432 247.992 113.736ZM 248.008 280L 248.008 288L 247.992 288L 247.992 280C 225.696 280 191.992 257.664 191.992 224C 191.992 193.168 209.52 160 248.008 160C 286.48 160 304 193.168 304 224C 304 257.664 270.296 280 248.008 280ZM 375.232 138.888C 367.928 137.024 360.152 136 352 136C 328.688 136 308.128 147.992 296.224 161.8C 297.456 144.624 303.896 131.464 314.848 123C 317.808 121.92 320.784 120.656 323.776 119.056C 325.984 117.88 328.16 116.536 330.312 115.12C 336.744 113.096 343.96 112 352 112C 366.44 112 381.576 117.192 393.24 125.664C 386.008 128.768 380 133.184 375.232 138.888ZM 283.776 55.056C 306.792 42.768 342.248 47.824 358.928 53.112C 354.576 69.448 339.784 89.104 323.256 100.616C 317.512 102.632 312.296 105.312 307.592 108.576C 285.352 115.68 264.704 105.288 256.52 100.224C 259.736 77.096 268.032 63.456 283.776 55.056ZM 212.224 55.056C 227.96 63.456 236.256 77.088 239.456 100.2C 231.28 105.208 210.52 115.6 188.36 108.552C 183.664 105.296 178.456 102.624 172.72 100.616C 156.256 89.144 141.52 69.592 137.112 53.288C 152.808 48.848 190.104 43.248 212.224 55.056ZM 143.992 112C 152.032 112 159.256 113.096 165.688 115.12C 167.848 116.536 170.024 117.88 172.232 119.056C 175.216 120.656 178.192 121.92 181.144 123C 192.096 131.464 198.544 144.624 199.768 161.8C 187.864 147.992 167.304 136 143.992 136C 135.84 136 128.064 137.024 120.76 138.888C 115.992 133.184 109.984 128.776 102.752 125.664C 114.424 117.192 129.552 112 143.992 112ZM 16 194.536C 16 158.976 37.976 136 71.992 136C 86.128 136 96.736 139.008 104.208 144.976C 79.824 157.024 63.992 180.176 63.992 208C 63.992 218.648 65.76 228.44 69.048 237.232C 65.088 239.936 60.968 243.344 56.96 247.336C 32.512 243.136 16 217.664 16 194.536ZM 47.992 304C 47.992 288.008 54.888 274.208 63.368 263.96C 63.584 263.968 63.776 264 63.992 264L 63.992 263.248C 68.008 258.528 72.32 254.608 76.432 251.608C 84.264 263.192 95.576 271.976 109.8 277.168C 106.112 285.744 103.992 294.816 103.992 303.992C 103.992 321.528 108.048 337.344 115.16 350.64C 112.512 352.856 109.68 355.8 107.008 359.608C 76.56 356.888 47.992 337.928 47.992 304ZM 142.744 441.336C 133.496 437.504 111.992 425.816 111.992 400C 111.992 379.656 118.728 369.176 124.08 364.04C 138.392 381.48 159.368 392 183.992 392C 185.336 392 186.56 391.88 187.856 391.832C 180.528 402.776 175.992 416.248 175.992 432C 175.992 435.936 176.36 439.688 176.92 443.328C 171.104 447.056 156.992 447.248 142.744 441.336ZM 247.992 480C 212.928 480 191.992 462.056 191.992 432C 191.992 411.416 201.232 396.208 214.176 386.872C 219.744 384.792 224.568 382.184 228.808 379.304C 235.032 377.136 241.552 376 247.992 376L 247.992 360.016C 247.992 360.016 247.992 360.008 248 360.008C 248 360.008 248.008 360.016 248.008 360.024L 248.008 376C 254.44 376 260.952 377.136 267.168 379.304C 271.416 382.192 276.256 384.8 281.824 386.88C 294.76 396.216 304 411.424 304 432C 304 462.056 283.064 480 247.992 480ZM 353.248 441.336C 339 447.248 324.896 447.064 319.064 443.328C 319.632 439.688 320 435.936 320 432C 320 416.248 315.464 402.776 308.136 391.832C 309.432 391.88 310.656 392 312 392C 336.608 392 357.56 381.496 371.88 364.08C 377.232 369.256 384 379.76 384 400C 384 425.816 362.496 437.504 353.248 441.336ZM 448 304C 448 337.928 419.432 356.888 388.992 359.616C 386.312 355.8 383.48 352.856 380.84 350.648C 387.944 337.352 392 321.536 392 304C 392 294.824 389.888 285.752 386.192 277.176C 400.416 271.976 411.736 263.2 419.56 251.616C 423.664 254.616 427.984 258.536 432 263.256L 432 264C 432.216 264 432.416 263.968 432.624 263.96C 441.104 274.208 448 288.008 448 304ZM 439.04 247.336C 435.032 243.344 430.912 239.944 426.952 237.232C 430.232 228.44 432 218.648 432 208C 432 180.176 416.168 157.032 391.784 144.976C 399.256 139.008 409.864 136 424 136C 458.016 136 480 158.976 480 194.536C 480 217.664 463.488 243.136 439.04 247.336Z"/>
<path id="path2_fill" d="M 16 -2.19727e-06L 0 -2.19727e-06C 0 26.472 21.528 48 48 48L 48 32C 30.352 32 16 17.648 16 -2.19727e-06Z"/>
<path id="path3_fill" d="M 16 -2.19727e-06L 0 -2.19727e-06C 0 22.056 17.944 40 40 40L 40 24C 26.768 24 16 13.232 16 -2.19727e-06Z"/>
</defs>
</svg>
